<svg version="1.1" id="Layer_1" xmlns="http://www.w3.org/2000/svg" xmlns:xlink="http://www.w3.org/1999/xlink" x="0px" y="0px"
	 width="100%" viewBox="0 0 684 630" enable-background="new 0 0 684 630" xml:space="preserve">
<path fill="#FFFEFE" opacity="1.000000" stroke="none" 
	d="
M415.000000,631.000000 
	C276.666656,631.000000 138.833328,631.000000 1.000000,631.000000 
	C1.000000,421.000000 1.000000,211.000000 1.000000,1.000000 
	C229.000000,1.000000 457.000000,1.000000 685.000000,1.000000 
	C685.000000,211.000000 685.000000,421.000000 685.000000,631.000000 
	C595.166687,631.000000 505.333344,631.000000 415.000000,631.000000 
M391.877350,399.654480 
	C407.351196,384.109161 422.825073,368.563873 438.563293,352.752991 
	C449.531219,363.783386 459.929016,374.588501 470.703308,385.004181 
	C493.676666,407.212708 521.363281,417.078522 552.900330,412.604614 
	C592.598938,406.972961 620.384521,384.560669 633.409668,346.690002 
	C646.360229,309.036255 638.723633,274.146057 610.777710,245.603622 
	C560.423218,194.174301 509.109039,143.684509 458.184204,92.813812 
	C457.360413,91.990898 456.389465,91.315285 454.966553,90.141457 
	C459.013611,112.333855 457.930359,133.393295 450.319641,153.859985 
	C448.947144,157.550873 449.430878,159.655579 452.220337,162.433121 
	C492.602417,202.642517 532.962769,242.875412 573.064392,283.364044 
	C589.648926,300.108612 589.914856,326.668793 574.395203,344.108826 
	C558.844299,361.583954 531.803894,365.211761 514.030457,350.166168 
	C501.074219,339.198456 490.391907,325.544525 478.244202,312.607086 
	C492.859497,298.061981 508.665649,282.331757 523.579773,267.489258 
	C511.085663,254.788330 498.663208,242.160217 486.765839,230.065872 
	C442.550171,274.286285 398.069946,318.771332 353.494781,363.351288 
	C365.305145,375.215851 377.395752,387.373138 389.523468,399.493225 
	C389.903107,399.872650 390.665924,399.868652 391.877350,399.654480 
M170.779388,410.720825 
	C149.210266,389.162170 127.523003,367.720032 106.109566,346.007812 
	C89.089157,328.749908 89.096184,301.158203 105.750404,283.723480 
	C122.499886,266.189026 150.579147,264.828430 168.418259,281.304260 
	C179.911911,291.919556 190.614120,303.391815 202.123688,314.933929 
	C186.187637,330.799286 170.288330,346.628082 154.801346,362.046356 
	C167.434464,374.670349 179.897354,387.124207 192.185944,399.403900 
	C236.372375,355.123108 280.832306,310.568237 324.889801,266.416656 
	C312.854919,254.396484 300.310120,241.867035 287.344208,228.916977 
	C272.012207,244.381165 256.339813,260.188660 240.321609,276.345001 
	C229.230194,265.143372 218.684967,254.005264 207.615067,243.415588 
	C184.935013,221.719406 157.564514,212.176071 126.625832,216.427307 
	C86.714523,221.911484 58.674740,244.280090 45.613155,282.394775 
	C32.496178,320.671051 40.756210,355.643921 69.274788,384.564941 
	C119.119011,435.112701 169.569168,485.062988 219.769882,535.259155 
	C220.943909,536.433044 222.170837,537.554138 224.187637,539.476013 
	C219.825745,515.877319 221.523041,494.109985 229.291107,472.776367 
	C229.824158,471.312408 228.444016,468.466217 227.099838,467.107666 
	C208.580978,448.391724 189.912216,429.824066 170.779388,410.720825 
M415.126770,273.627838 
	C418.558197,270.293213 421.989624,266.958618 425.614899,263.435638 
	C409.389832,247.207916 393.641663,231.457169 377.642273,215.455170 
	C388.328186,204.808334 398.837250,194.588745 409.065796,184.095673 
	C432.185913,160.377655 442.186401,131.930176 437.007263,99.189873 
	C430.820831,60.081741 408.316803,33.080807 371.020050,20.441092 
	C333.709045,7.796533 299.084930,15.298273 270.805267,42.947720 
	C219.209564,93.393562 168.568192,144.815521 117.540169,195.841782 
	C116.726883,196.655029 116.060013,197.614700 114.884270,199.040176 
	C137.111877,195.025665 158.175613,196.076767 178.639984,203.711243 
	C182.369629,205.102615 184.488022,204.419083 187.196625,201.699280 
	C227.180389,161.550125 267.241211,121.477379 307.379822,81.482918 
	C324.607727,64.316856 351.967712,63.905964 369.721191,80.292358 
	C387.312958,96.529510 389.311615,124.593765 373.190857,142.497498 
	C362.520752,154.347717 350.519897,164.999680 338.487061,176.803925 
	C322.959381,161.217407 307.161652,145.359848 291.932770,130.073273 
	C279.263428,142.725815 266.809143,155.163544 254.562729,167.393707 
	C298.732880,211.572723 343.238007,256.086823 388.089203,300.947052 
	C396.815216,292.114380 405.710571,283.110291 415.126770,273.627838 
M293.119873,421.620300 
	C285.228119,429.515076 277.207306,437.285675 269.468567,445.327667 
	C245.495987,470.239838 235.913635,500.051575 242.600571,533.832275 
	C250.185211,572.147827 273.560791,598.166199 310.838104,609.522705 
	C348.348267,620.950134 382.141754,612.027893 410.082275,584.367126 
	C460.525757,534.428833 510.541718,484.058777 560.732544,433.865356 
	C561.780090,432.817780 562.783630,431.726135 564.562134,429.865936 
	C541.152588,434.158203 519.478821,432.707825 498.433746,424.681610 
	C495.461090,423.547852 494.188721,424.908081 492.518616,426.582825 
	C478.164307,440.976990 463.791321,455.352539 449.418579,469.728271 
	C423.382690,495.769470 397.456573,521.921753 371.264984,547.805420 
	C353.967773,564.899292 326.430695,564.972351 308.965088,548.408508 
	C291.299042,531.654541 290.008423,504.021637 306.196960,485.736969 
	C310.277008,481.128693 314.839691,476.947784 319.179840,472.569733 
	C325.926575,465.764160 332.672516,458.957764 339.729065,451.838684 
	C355.889160,468.127411 371.588776,483.951935 386.630646,499.113495 
	C399.507904,486.343689 412.113159,473.843597 424.218262,461.839478 
	C380.034241,417.557983 335.588470,373.014099 291.450714,328.778931 
	C279.168915,341.069763 266.718445,353.529419 254.187958,366.069153 
	C269.730988,381.579193 285.504761,397.319519 301.959900,413.739746 
	C298.854279,416.486267 296.235626,418.802094 293.119873,421.620300 
z"/>
<path fill="#A02539" opacity="1.000000" stroke="none" 
	d="
M391.563721,399.848938 
	C390.665924,399.868652 389.903107,399.872650 389.523468,399.493225 
	C377.395752,387.373138 365.305145,375.215851 353.494781,363.351288 
	C398.069946,318.771332 442.550171,274.286285 486.765839,230.065872 
	C498.663208,242.160217 511.085663,254.788330 523.579773,267.489258 
	C508.665649,282.331757 492.859497,298.061981 478.244202,312.607086 
	C490.391907,325.544525 501.074219,339.198456 514.030457,350.166168 
	C531.803894,365.211761 558.844299,361.583954 574.395203,344.108826 
	C589.914856,326.668793 589.648926,300.108612 573.064392,283.364044 
	C532.962769,242.875412 492.602417,202.642517 452.220337,162.433121 
	C449.430878,159.655579 448.947144,157.550873 450.319641,153.859985 
	C457.930359,133.393295 459.013611,112.333855 454.966553,90.141457 
	C456.389465,91.315285 457.360413,91.990898 458.184204,92.813812 
	C509.109039,143.684509 560.423218,194.174301 610.777710,245.603622 
	C638.723633,274.146057 646.360229,309.036255 633.409668,346.690002 
	C620.384521,384.560669 592.598938,406.972961 552.900330,412.604614 
	C521.363281,417.078522 493.676666,407.212708 470.703308,385.004181 
	C459.929016,374.588501 449.531219,363.783386 438.563293,352.752991 
	C422.825073,368.563873 407.351196,384.109161 391.563721,399.848938 
z"/>
<path fill="#A02539" opacity="1.000000" stroke="none" 
	d="
M171.029800,410.970459 
	C189.912216,429.824066 208.580978,448.391724 227.099838,467.107666 
	C228.444016,468.466217 229.824158,471.312408 229.291107,472.776367 
	C221.523041,494.109985 219.825745,515.877319 224.187637,539.476013 
	C222.170837,537.554138 220.943909,536.433044 219.769882,535.259155 
	C169.569168,485.062988 119.119011,435.112701 69.274788,384.564941 
	C40.756210,355.643921 32.496178,320.671051 45.613155,282.394775 
	C58.674740,244.280090 86.714523,221.911484 126.625832,216.427307 
	C157.564514,212.176071 184.935013,221.719406 207.615067,243.415588 
	C218.684967,254.005264 229.230194,265.143372 240.321609,276.345001 
	C256.339813,260.188660 272.012207,244.381165 287.344208,228.916977 
	C300.310120,241.867035 312.854919,254.396484 324.889801,266.416656 
	C280.832306,310.568237 236.372375,355.123108 192.185944,399.403900 
	C179.897354,387.124207 167.434464,374.670349 154.801346,362.046356 
	C170.288330,346.628082 186.187637,330.799286 202.123688,314.933929 
	C190.614120,303.391815 179.911911,291.919556 168.418259,281.304260 
	C150.579147,264.828430 122.499886,266.189026 105.750404,283.723480 
	C89.096184,301.158203 89.089157,328.749908 106.109566,346.007812 
	C127.523003,367.720032 149.210266,389.162170 171.029800,410.970459 
z"/>
<path fill="#A02439" opacity="1.000000" stroke="none" 
	d="
M414.866333,273.867004 
	C405.710571,283.110291 396.815216,292.114380 388.089203,300.947052 
	C343.238007,256.086823 298.732880,211.572723 254.562729,167.393707 
	C266.809143,155.163544 279.263428,142.725815 291.932770,130.073273 
	C307.161652,145.359848 322.959381,161.217407 338.487061,176.803925 
	C350.519897,164.999680 362.520752,154.347717 373.190857,142.497498 
	C389.311615,124.593765 387.312958,96.529510 369.721191,80.292358 
	C351.967712,63.905964 324.607727,64.316856 307.379822,81.482918 
	C267.241211,121.477379 227.180389,161.550125 187.196625,201.699280 
	C184.488022,204.419083 182.369629,205.102615 178.639984,203.711243 
	C158.175613,196.076767 137.111877,195.025665 114.884270,199.040176 
	C116.060013,197.614700 116.726883,196.655029 117.540169,195.841782 
	C168.568192,144.815521 219.209564,93.393562 270.805267,42.947720 
	C299.084930,15.298273 333.709045,7.796533 371.020050,20.441092 
	C408.316803,33.080807 430.820831,60.081741 437.007263,99.189873 
	C442.186401,131.930176 432.185913,160.377655 409.065796,184.095673 
	C398.837250,194.588745 388.328186,204.808334 377.642273,215.455170 
	C393.641663,231.457169 409.389832,247.207916 425.614899,263.435638 
	C421.989624,266.958618 418.558197,270.293213 414.866333,273.867004 
z"/>
<path fill="#A02439" opacity="1.000000" stroke="none" 
	d="
M293.368408,421.369110 
	C296.235626,418.802094 298.854279,416.486267 301.959900,413.739746 
	C285.504761,397.319519 269.730988,381.579193 254.187958,366.069153 
	C266.718445,353.529419 279.168915,341.069763 291.450714,328.778931 
	C335.588470,373.014099 380.034241,417.557983 424.218262,461.839478 
	C412.113159,473.843597 399.507904,486.343689 386.630646,499.113495 
	C371.588776,483.951935 355.889160,468.127411 339.729065,451.838684 
	C332.672516,458.957764 325.926575,465.764160 319.179840,472.569733 
	C314.839691,476.947784 310.277008,481.128693 306.196960,485.736969 
	C290.008423,504.021637 291.299042,531.654541 308.965088,548.408508 
	C326.430695,564.972351 353.967773,564.899292 371.264984,547.805420 
	C397.456573,521.921753 423.382690,495.769470 449.418579,469.728271 
	C463.791321,455.352539 478.164307,440.976990 492.518616,426.582825 
	C494.188721,424.908081 495.461090,423.547852 498.433746,424.681610 
	C519.478821,432.707825 541.152588,434.158203 564.562134,429.865936 
	C562.783630,431.726135 561.780090,432.817780 560.732544,433.865356 
	C510.541718,484.058777 460.525757,534.428833 410.082275,584.367126 
	C382.141754,612.027893 348.348267,620.950134 310.838104,609.522705 
	C273.560791,598.166199 250.185211,572.147827 242.600571,533.832275 
	C235.913635,500.051575 245.495987,470.239838 269.468567,445.327667 
	C277.207306,437.285675 285.228119,429.515076 293.368408,421.369110 
z"/>
</svg>